# xmcd
#
# Track frame offsets:
#	151
#	14877
#	26177
#	41102
#	52750
#	71933
#	85135
#	99333
#	112896
#	127665
#	142241
#	156072
#	170241
#
# Disc length: 2464 seconds
#
# Revision: 1
# Processed by: cddbd v1.5.2PL0 Copyright (c) Steve Scherf et al.
# Submitted via: audiograbber 1.83.01
#
DISCID=b4099e0d
DTITLE=Hermann Lammers Meyer - »Yesterday Once More«
DYEAR=2006
DGENRE=Country
TTITLE0=San Antonio Rose
TTITLE1=Blue Eyes Crying In The Rain
TTITLE2=Silver Wings
TTITLE3=Yellow Rose Of Texas
TTITLE4=Today I Started Loving You Again
TTITLE5=Yesterday Once More
TTITLE6=Jambalaya
TTITLE7=The Bottle Let Me Down (Duet with Marion Möhring)
TTITLE8=The Wild Side Of Live
TTITLE9=If You're Gonna Play In Texas (You Gotta Have A Fiddle In The Band)
TTITLE10=Mamas Don't Let Your Babies Grow Up To Be Cowboys
TTITLE11=Truck Driving Man
TTITLE12=The Old Bear (bonus track)
EXTD=
EXTT0=
EXTT1=
EXTT2=
EXTT3=
EXTT4=
EXTT5=
EXTT6=
EXTT7=
EXTT8=
EXTT9=
EXTT10=
EXTT11=
EXTT12=
PLAYORDER=
